<?xml version="1.0" encoding="UTF-8" standalone="no"?>
<svg
   xmlns:dc="http://purl.org/dc/elements/1.1/"
   xmlns:cc="http://creativecommons.org/ns#"
   xmlns:rdf="http://www.w3.org/1999/02/22-rdf-syntax-ns#"
   xmlns:svg="http://www.w3.org/2000/svg"
   xmlns="http://www.w3.org/2000/svg"
   xmlns:sodipodi="http://sodipodi.sourceforge.net/DTD/sodipodi-0.dtd"
   xmlns:inkscape="http://www.inkscape.org/namespaces/inkscape"
   version="1.1"
   width="455px"
   height="512px"
   id="svg4"
   sodipodi:docname="about-cpp-icon.svg"
   inkscape:version="0.92.2 (5c3e80d, 2017-08-06)">
  <metadata
     id="metadata10">
    <rdf:RDF>
      <cc:Work
         rdf:about="">
        <dc:format>image/svg+xml</dc:format>
        <dc:type
           rdf:resource="http://purl.org/dc/dcmitype/StillImage" />
      </cc:Work>
    </rdf:RDF>
  </metadata>
  <defs
     id="defs8" />
  <sodipodi:namedview
     pagecolor="#ffffff"
     bordercolor="#666666"
     borderopacity="1"
     objecttolerance="10"
     gridtolerance="10"
     guidetolerance="10"
     inkscape:pageopacity="0"
     inkscape:pageshadow="2"
     inkscape:window-width="716"
     inkscape:window-height="480"
     id="namedview6"
     showgrid="false"
     inkscape:zoom="0.4609375"
     inkscape:cx="227.5"
     inkscape:cy="256"
     inkscape:window-x="0"
     inkscape:window-y="0"
     inkscape:window-maximized="0"
     inkscape:current-layer="svg4" />
  <path
     d="M435.2793884,113.2840881L247.1911163,4.6924829c-10.8347626-6.2566438-28.5671387-6.2566438-39.4019012,0L19.7009449,113.2840881C8.864645,119.5393753,0,134.8957062,0,147.4076385v217.1847382c0.8429857,14.5713501,8.2855635,26.6393127,19.7009449,34.1234741l188.0882721,108.5915833c10.8347626,6.2567749,28.5671387,6.2567749,39.4019012,0l188.0882721-108.5915833c12.2479248-8.1462708,19.2193298-20.4076233,19.7009277-34.1234741V147.4076385C454.5403748,134.2429352,446.6565552,120.9648895,435.2793884,113.2840881z M75.8300552,256.0007019c-0.8911743-148.0888062,197.459137-213.4790344,282.9962769-75.8776245l-65.6346436,37.9804688c-39.6215057-65.5336304-138.0008087-42.1011963-141.5315704,37.8971558c1.0603333,73.7290649,97.7535858,107.9782104,141.536026,37.8927917L358.83078,331.872406C283.4476624,462.7354736,79.6317978,415.6530457,75.8300552,256.0007019z M379.1502686,264.425293h-16.8520813v16.8521729h-16.8491821V264.425293h-16.8521118v-16.850647h16.8521118v-16.8505554h16.8491821v16.8505554h16.8520813V264.425293z M442.34198,264.425293h-16.8520813v16.8521729h-16.8490906V264.425293h-16.8522034v-16.850647h16.8522034v-16.8505554h16.8490906v16.8505554H442.34198V264.425293z"
     id="path2"
     style="fill:#f5f5f5;fill-opacity:1" />
</svg>
